# File created by Blade
# Date/Time:  Wed Jan 21 16:14:13 2015
# Frame Rate: 120.000 fps
#------------------------------------------------------
:FULLY-SPECIFIED
:DEGREES
469
root 18.576178 35.589946 -20.368014 -171.459571 -5.212703 -178.996648
Spine -15.920310 -1.551574 -1.540842
Head 8.761222 -3.616176 -0.017548
LeftShoulder -18.507074 -24.666316 30.679393
LeftArm -31.360089 10.545056 -15.966105
LeftForeArm 8.222332 -0.000000 -1.812248
LeftHand -12.228920 -0.000000 -4.547350
LeftHandThumb1 -26.253704 0.000000 33.147579
RightShoulder -20.420897 -14.812492 -16.707422
RightArm -25.889052 38.477102 22.029128
RightForeArm -29.572223 -0.000000 5.909569
RightHand -9.947154 -0.000000 13.013665
RightHandThumb1 -24.326973 -0.000000 -32.862282
LeftUpLeg -1.239484 5.320011 0.549378
LeftLeg -4.579463 -0.000000 0.000000
LeftFoot -21.120747 25.221808 -12.623518
LeftToeBase 26.365843 -0.000000 -0.000000
RightUpLeg -2.154597 -9.335020 2.273628
RightLeg -0.986281 -0.000000 0.000000
RightFoot -23.320331 -27.699243 16.393619
RightToeBase 23.148417 -0.000000 -0.000000
470
root 18.579306 35.587642 -20.382335 -171.610511 -5.256838 -178.986977
Spine -15.897039 -1.649645 -1.534688
Head 8.779776 -3.507177 -0.009528
LeftShoulder -18.292094 -24.803906 30.701859
LeftArm -30.674071 10.608471 -15.731346
LeftForeArm 8.488095 -0.000000 -1.747332
LeftHand -12.254227 -0.000000 -4.434041
LeftHandThumb1 -26.253704 0.000000 33.147579
RightShoulder -20.260011 -14.606608 -16.709333
RightArm -25.401084 38.178589 22.058033
RightForeArm -29.902503 -0.000000 5.972360
RightHand -9.795356 -0.000000 12.796185
RightHandThumb1 -24.326973 -0.000000 -32.862282
LeftUpLeg -1.088256 5.224622 0.590111
LeftLeg -4.552613 -0.000000 0.000000
LeftFoot -21.212875 25.293891 -12.693963
LeftToeBase 26.429984 -0.000000 -0.000000
RightUpLeg -2.069480 -9.622167 2.288432
RightLeg -0.821570 -0.000000 0.000000
RightFoot -23.371797 -27.515492 16.313477
RightToeBase 22.992605 -0.000000 -0.000000
471
root 18.582639 35.587178 -20.388859 -171.678465 -5.251794 -178.983770
Spine -15.943583 -1.594585 -1.552097
Head 8.683142 -3.579810 -0.043681
LeftShoulder -18.085194 -24.996886 30.642796
LeftArm -29.691959 10.753029 -15.430368
LeftForeArm 8.901418 -0.000000 -1.841644
LeftHand -12.071327 0.000000 -4.704448
LeftHandThumb1 -26.253704 0.000000 33.147579
RightShoulder -20.250233 -14.415901 -16.696548
RightArm -24.852077 37.908452 22.065685
RightForeArm -30.255183 -0.000000 6.109860
RightHand -9.681229 -0.000000 12.672626
RightHandThumb1 -24.326973 -0.000000 -32.862282
LeftUpLeg -1.041550 5.179186 0.609450
LeftLeg -4.491651 -0.000000 0.000000
LeftFoot -21.250200 25.342127 -12.706525
LeftToeBase 26.122151 -0.000000 -0.000000
RightUpLeg -2.071654 -9.715143 2.295631
RightLeg -0.676524 -0.000000 0.000000
RightFoot -23.435835 -27.439748 16.311504
RightToeBase 22.976240 -0.000000 -0.000000
472
root 18.585663 35.584619 -20.398907 -171.957731 -5.219821 -178.965898
Spine -15.742793 -1.642581 -1.547337
Head 8.659529 -3.463434 -0.008844
LeftShoulder -17.912200 -25.129626 30.644766
LeftArm -28.810735 10.789121 -15.182301
LeftForeArm 8.973422 -0.000000 -1.869579
LeftHand -12.470090 0.000000 -4.162999
LeftHandThumb1 -26.253704 0.000000 33.147579
RightShoulder -20.014118 -14.198521 -16.690659
RightArm -24.313979 37.739669 22.037252
RightForeArm -30.527072 -0.000000 6.225554
RightHand -9.600900 -0.000000 12.562023
RightHandThumb1 -24.326973 -0.000000 -32.862282
LeftUpLeg -0.758862 5.146342 0.658629
LeftLeg -4.443031 -0.000000 0.000000
LeftFoot -21.323175 25.324240 -12.711908
LeftToeBase 26.334162 -0.000000 -0.000000
RightUpLeg -1.831946 -9.728045 2.273150
RightLeg -0.578743 -0.000000 0.000000
RightFoot -23.467819 -27.454316 16.246435
RightToeBase 23.000938 -0.000000 -0.000000
473
root 18.589118 35.582951 -20.405241 -172.147128 -5.186366 -178.947104
Spine -15.656846 -1.676882 -1.528055
Head 8.633305 -3.361877 0.002325
LeftShoulder -17.644585 -25.463310 30.591024
LeftArm -28.044349 11.015968 -14.794638
LeftForeArm 9.201676 -0.000000 -1.759995
LeftHand -12.221232 -0.000000 -4.346102
LeftHandThumb1 -26.253704 0.000000 33.147579
RightShoulder -19.839382 -13.961097 -16.704605
RightArm -23.655150 37.649066 21.964158
RightForeArm -30.991393 0.000000 6.267461
RightHand -9.407354 0.000000 12.345150
RightHandThumb1 -24.326973 -0.000000 -32.862282
LeftUpLeg -0.582520 5.143842 0.699026
LeftLeg -4.389845 -0.000000 0.000000
LeftFoot -21.403568 25.346887 -12.722900
LeftToeBase 26.399258 -0.000000 -0.000000
RightUpLeg -1.686882 -9.730344 2.265540
RightLeg -0.484729 -0.000000 0.000000
RightFoot -23.515686 -27.450807 16.248123
RightToeBase 23.015540 -0.000000 -0.000000
474
root 18.592320 35.581944 -20.405767 -172.226889 -5.140903 -178.931037
Spine -15.715053 -1.694735 -1.519616
Head 8.633047 -3.334180 0.036793
LeftShoulder -17.423846 -25.503544 30.549418
LeftArm -27.012034 10.833933 -14.414754
LeftForeArm 9.756509 0.000000 -1.806597
LeftHand -11.998070 -0.000000 -3.919024
LeftHandThumb1 -26.253704 0.000000 33.147579
RightShoulder -19.678083 -13.731104 -16.701050
RightArm -22.944865 37.538141 21.843611
RightForeArm -31.396726 -0.000000 6.361717
RightHand -9.359069 -0.000000 12.253147
RightHandThumb1 -24.326973 -0.000000 -32.862282
LeftUpLeg -0.529615 5.167859 0.723815
LeftLeg -4.331422 -0.000000 0.000000
LeftFoot -21.466882 25.361148 -12.743951
LeftToeBase 26.184759 -0.000000 -0.000000
RightUpLeg -1.677405 -9.694943 2.274314
RightLeg -0.361065 -0.000000 0.000000
RightFoot -23.569693 -27.468518 16.228858
RightToeBase 23.017638 -0.000000 -0.000000
475
root 18.593627 35.580755 -20.404951 -172.305789 -5.105759 -178.918237
Spine -15.778462 -1.698098 -1.514031
Head 8.656163 -3.275709 0.087809
LeftShoulder -17.116777 -25.741424 30.448556
LeftArm -26.066220 10.963197 -14.025199
LeftForeArm 10.079634 -0.000000 -1.828513
LeftHand -11.932141 0.000000 -3.623138
LeftHandThumb1 -26.253704 0.000000 33.147579
RightShoulder -19.470650 -13.445121 -16.692693
RightArm -22.287774 37.355521 21.650902
RightForeArm -31.667043 0.000000 6.434421
RightHand -9.318199 -0.000000 12.051443
RightHandThumb1 -24.326973 -0.000000 -32.862282
LeftUpLeg -0.481261 5.154274 0.741079
LeftLeg -4.261354 -0.000000 0.000000
LeftFoot -21.548728 25.389269 -12.769811
LeftToeBase 26.383950 -0.000000 -0.000000
RightUpLeg -1.667819 -9.721398 2.281100
RightLeg -0.244389 -0.000000 0.000000
RightFoot -23.609056 -27.453562 16.191625
RightToeBase 22.994839 -0.000000 -0.000000
476
root 18.596240 35.580105 -20.400924 -172.382384 -5.057209 -178.913240
Spine -15.840923 -1.670421 -1.531381
Head 8.701829 -3.275857 0.151218
LeftShoulder -16.737138 -25.922058 30.344931
LeftArm -25.193025 11.284027 -13.858037
LeftForeArm 9.846860 -0.000000 -1.726374
LeftHand -12.004617 -0.000000 -3.379283
LeftHandThumb1 -26.253704 0.000000 33.147579
RightShoulder -19.296760 -13.155711 -16.664193
RightArm -21.568814 37.278276 21.413568
RightForeArm -32.071433 -0.000000 6.487892
RightHand -9.335908 -0.000000 11.895587
RightHandThumb1 -24.326973 -0.000000 -32.862282
LeftUpLeg -0.442654 5.173890 0.753329
LeftLeg -4.185180 -0.000000 0.000000
LeftFoot -21.603311 25.384869 -12.786445
LeftToeBase 26.440315 -0.000000 -0.000000
RightUpLeg -1.647242 -9.693056 2.277405
RightLeg -0.160156 -0.000000 0.000000
RightFoot -23.643422 -27.452323 16.196244
RightToeBase 22.952660 -0.000000 -0.000000
477
root 18.598910 35.579602 -20.398484 -172.511054 -4.976839 -178.895809
Spine -15.854487 -1.666076 -1.518850
Head 8.786549 -3.190783 0.206158
LeftShoulder -16.424877 -25.888964 30.166259
LeftArm -24.109960 11.602879 -13.736925
LeftForeArm 9.676074 -0.000000 -1.815378
LeftHand -12.069483 -0.000000 -3.029472
LeftHandThumb1 -26.253704 0.000000 33.147579
RightShoulder -19.052651 -12.952672 -16.652453
RightArm -20.757815 37.302894 21.284514
RightForeArm -32.466500 -0.000000 6.540294
RightHand -9.268870 -0.000000 11.630970
RightHandThumb1 -24.326973 -0.000000 -32.862282
LeftUpLeg -0.328433 5.237509 0.777773
LeftLeg -4.146057 -0.000000 0.000000
LeftFoot -21.662482 25.393194 -12.797951
LeftToeBase 26.517944 -0.000000 -0.000000
RightUpLeg -1.586921 -9.702298 2.274981
RightLeg -0.053188 -0.000000 0.000000
RightFoot -23.652253 -27.384872 16.139509
RightToeBase 22.983131 -0.000000 -0.000000
478
root 18.599573 35.578774 -20.397015 -172.644450 -4.924952 -178.893603
Spine -15.855509 -1.695163 -1.534781
Head 8.843044 -3.189951 0.327605
LeftShoulder -16.179134 -25.848706 30.091395
LeftArm -22.908387 11.431477 -13.452623
LeftForeArm 10.036542 -0.000000 -1.981019
LeftHand -12.047632 -0.000000 -2.736938
LeftHandThumb1 -26.253704 0.000000 33.147579
RightShoulder -18.766684 -12.724235 -16.578476
RightArm -19.911454 37.448841 21.004362
RightForeArm -32.937814 0.000000 6.331922
RightHand -9.219613 -0.000000 11.392694
RightHandThumb1 -24.326973 -0.000000 -32.862282
LeftUpLeg -0.204353 5.272777 0.787346
LeftLeg -4.116359 -0.000000 0.000000
LeftFoot -21.691723 25.386135 -12.814442
LeftToeBase 26.484416 -0.000000 -0.000000
RightUpLeg -1.504888 -9.755914 2.258215
RightLeg 0.027410 -0.000000 -0.000000
RightFoot -23.659904 -27.331060 16.068158
RightToeBase 22.987528 -0.000000 -0.000000
